<svg width="39" height="31" viewBox="0 0 39 31" fill="none" xmlns="http://www.w3.org/2000/svg">
<path d="M7.70053 30.2585C5.45455 30.2585 3.58289 29.4029 2.08556 27.6917C0.695187 25.9805 0 23.4136 0 19.9912C0 15.4992 1.12299 11.3815 3.36898 7.63822C5.61497 3.78796 9.35829 1.32806 14.5989 0.258545L15.4011 3.94838C12.2995 4.91095 10.0535 6.08742 8.6631 7.4778C7.27273 8.76122 6.57754 10.4725 6.57754 12.6115C6.57754 14.3227 7.3262 15.2318 8.82353 15.3388C10.4278 15.4457 11.9251 16.0874 13.3155 17.2639C14.7059 18.4404 15.4011 20.2585 15.4011 22.7184C15.4011 25.0714 14.6524 26.943 13.1551 28.3334C11.6578 29.6168 9.83957 30.2585 7.70053 30.2585ZM30.4813 30.2585C28.2353 30.2585 26.3636 29.4029 24.8663 27.6917C23.4759 25.9805 22.7807 23.4136 22.7807 19.9912C22.7807 15.4992 23.9037 11.3815 26.1497 7.63822C28.3957 3.78796 32.139 1.32806 37.3797 0.258545L38.1818 3.94838C35.0802 4.91095 32.8342 6.08742 31.4438 7.4778C30.0535 8.76122 29.3583 10.4725 29.3583 12.6115C29.3583 14.3227 30.107 15.2318 31.6043 15.3388C33.2086 15.4457 34.7059 16.0874 36.0963 17.2639C37.4866 18.4404 38.1818 20.2585 38.1818 22.7184C38.1818 25.0714 37.4332 26.943 35.9358 28.3334C34.4385 29.6168 32.6203 30.2585 30.4813 30.2585Z" fill="#F5CAC4"/>
</svg>
