<svg width="113" height="26" viewBox="0 0 113 26" fill="none" xmlns="http://www.w3.org/2000/svg">
<g clip-path="url(#clip0_114_60)">
<mask id="mask0_114_60" style="mask-type:luminance" maskUnits="userSpaceOnUse" x="0" y="0" width="113" height="26">
<path d="M112.292 0.0615234H0.416504V25.0615H112.292V0.0615234Z" fill="white"/>
</mask>
<g mask="url(#mask0_114_60)">
<path d="M10.4973 24.999H8.58643V-0.000976562L10.4973 1.59139V24.999Z" fill="#132030"/>
<path d="M4.44629 24.9992H6.35711V4.84473L4.44629 6.43708V24.9992Z" fill="#132030"/>
<path d="M2.37616 24.9994H0.465332V11.2144L2.37616 9.62207V24.9994Z" fill="#132030"/>
<path d="M18.6184 24.9994H16.7075V9.62207L18.6184 11.2144V24.9994Z" fill="#132030"/>
<path d="M12.7266 24.9992H14.6373V6.43708L12.7266 4.84473V24.9992Z" fill="#132030"/>
<path fill-rule="evenodd" clip-rule="evenodd" d="M39.4091 17.9533V17.0938H37.2845V17.9151C37.2845 19.7486 37.8779 21.3865 40.4342 21.3865C42.9907 21.3865 43.6712 19.5386 43.6712 17.5665C43.6712 15.2268 43.0431 14.3339 40.9926 12.7915C39.7886 11.8986 39.6054 11.359 39.6054 10.4374C39.6054 9.51587 39.7669 8.90945 40.4779 8.90945C41.189 8.90945 41.3504 9.5111 41.3504 10.4661V11.1489H43.4444V10.404C43.4444 8.89512 42.9995 7.06152 40.5259 7.06152C38.0524 7.06152 37.507 8.90945 37.507 10.7383C37.507 12.7963 38.2966 13.5603 39.7669 14.7349C41.237 15.9096 41.5555 16.3728 41.5555 17.8674C41.5555 18.7698 41.3199 19.5625 40.5171 19.5625C39.7145 19.5625 39.4091 18.9846 39.4091 17.9533ZM27.059 21.1859L27.5345 17.4709H29.6504L30.1912 21.1859H32.3987L30.1084 7.28585H27.1244L24.917 21.1859H27.059ZM28.6251 9.32476C28.7821 10.8957 29.0789 13.1353 29.3929 15.4989H27.8137C27.856 15.1781 27.9017 14.835 27.949 14.4799L27.9491 14.4795C28.205 12.5607 28.5075 10.2917 28.5554 9.32476H28.6251ZM55.4544 21.1859H53.8054C53.7454 20.8423 53.7075 20.4944 53.6919 20.1449C53.3124 21.0713 52.514 21.3913 51.6327 21.3913C49.6172 21.3913 48.9672 19.911 48.9672 17.5713V11.0247C48.9672 8.75657 49.8397 7.08532 52.2174 7.08532C55.0922 7.08532 55.3976 9.22931 55.3976 10.7239V11.1727H53.2731V10.6188C53.2731 9.88349 53.1684 9.03831 52.2042 9.03831C51.4321 9.03831 51.1049 9.57787 51.1049 10.6904V17.8004C51.1049 18.913 51.4234 19.4908 52.1869 19.4908C53.103 19.4908 53.3255 18.7173 53.3255 17.2848V15.2554H52.1389V13.4121H55.4544V21.1859ZM62.8274 21.1859L63.3072 17.4709H65.4056L65.9465 21.1859H68.1452L65.8549 7.28582H62.871L60.6897 21.1859H62.8274ZM64.3979 9.32475C64.5549 10.8957 64.8515 13.1351 65.1656 15.4988H63.569C63.6112 15.178 63.657 14.8348 63.7044 14.4795V14.4791L63.7045 14.4789C63.9602 12.5602 64.2627 10.2916 64.3106 9.32475H64.3979ZM75.3692 14.9735V21.181H73.2579V7.28582H76.1807C78.266 7.28582 79.4962 8.13577 79.4962 10.6283V11.1583C79.4962 13.2928 78.6237 13.8371 78.1045 14.0568C78.9029 14.4388 79.3566 15.0118 79.3566 16.9218C79.3217 18.3461 79.364 19.7716 79.4831 21.1906H77.4415C77.287 20.4691 77.2952 18.6654 77.3004 17.5376C77.3011 17.3593 77.3019 17.1979 77.3019 17.0603C77.3019 15.3651 77.0837 14.9784 75.8579 14.9784L75.3692 14.9735ZM75.3692 13.202H75.8535C76.9702 13.202 77.3804 12.7723 77.3804 11.2634V10.7859C77.3804 9.71152 77.1622 9.05735 75.9669 9.05735H75.3692V13.202ZM88.095 7.28582H85.1677V21.1859H88.095C91.3494 21.1859 91.7071 18.8509 91.7071 16.726V11.3971C91.7071 8.81382 91.0004 7.28582 88.095 7.28582ZM87.9772 19.3618H87.301V9.12897H87.9641C89.3601 9.12897 89.5782 9.95027 89.5782 11.2252V17.0173C89.5782 18.4545 89.3689 19.3618 87.9772 19.3618ZM99.5157 7.28582V21.1859H97.4042V7.28582H99.5157ZM106.836 21.1859L107.316 17.4709H109.423L109.96 21.1859H112.167L109.877 7.28582H106.893L104.685 21.1859H106.836ZM109.06 14.6595C109.096 14.9369 109.133 15.217 109.17 15.4988H107.582C107.608 15.3024 107.636 15.0975 107.664 14.8866C107.932 12.8931 108.272 10.3611 108.324 9.32475H108.402C108.54 10.7084 108.79 12.6106 109.06 14.6595Z" fill="#132030"/>
</g>
</g>
<defs>
<clipPath id="clip0_114_60">
<rect width="111.875" height="25" fill="white" transform="translate(0.416504 0.0615234)"/>
</clipPath>
</defs>
</svg>
