<svg width="90" height="26" viewBox="0 0 90 26" fill="none" xmlns="http://www.w3.org/2000/svg">
<g clip-path="url(#clip0_114_104)">
<mask id="mask0_114_104" style="mask-type:luminance" maskUnits="userSpaceOnUse" x="0" y="0" width="90" height="26">
<path d="M90 0.0615234H0.5V25.0615H90V0.0615234Z" fill="white"/>
</mask>
<g mask="url(#mask0_114_104)">
<path d="M13.7293 21.2801C15.3435 21.1434 16.888 20.5616 18.191 19.5991L20.6135 22.4741C18.7625 23.8957 16.5504 24.7707 14.2278 25.0001C11.9051 25.2294 9.56459 24.8038 7.47129 23.7717C5.37799 22.7394 3.61549 21.1418 2.38336 19.1596C1.1512 17.1773 0.498629 14.8898 0.499513 12.5558C0.500396 10.2219 1.1547 7.93478 2.38834 5.9535C3.62199 3.97222 5.3857 2.3759 7.47978 1.34527C9.57385 0.314646 11.9147 -0.109112 14.2371 0.121973C16.5596 0.353059 18.771 1.22976 20.621 2.65281L18.1973 5.52781C16.8951 4.56414 15.3511 3.98085 13.737 3.84291C12.123 3.70496 10.5024 4.01779 9.05563 4.74652C7.60889 5.47526 6.39285 6.59131 5.54295 7.97036C4.69304 9.34941 4.24266 10.9373 4.24193 12.5572C4.24122 14.1772 4.69019 15.7654 5.53888 17.1453C6.38755 18.5251 7.6026 19.6422 9.04869 20.3722C10.4948 21.1023 12.1151 21.4166 13.7293 21.2801Z" fill="#132030"/>
<path d="M21.4738 21.748L19.0513 18.873H19.055C19.9084 18.058 20.5878 17.0784 21.0519 15.9934C21.5159 14.9084 21.7553 13.7407 21.7553 12.5605C21.7553 11.3805 21.5159 10.2126 21.0519 9.12766C20.5878 8.04268 19.9084 7.06307 19.055 6.24805L21.48 3.37305C22.7484 4.54401 23.7605 5.965 24.4526 7.54648C25.1446 9.12796 25.5016 10.8356 25.501 12.5619C25.5005 14.2882 25.1424 15.9957 24.4493 17.5767C23.7561 19.1577 22.743 20.5779 21.4738 21.748Z" fill="#132030"/>
<path d="M71.3081 0.811523V20.8865H73.7006V0.811523H71.3081Z" fill="#132030"/>
<path fill-rule="evenodd" clip-rule="evenodd" d="M83.1809 18.9893C80.6234 18.9893 78.6709 17.5868 78.2034 15.1118H89.7259C89.7809 14.7543 89.8084 14.3968 89.8084 14.0393C89.8084 10.1893 87.1134 6.7793 82.9609 6.7793C78.6709 6.7793 75.7559 9.9418 75.7559 14.0118C75.7559 18.1368 78.6984 21.2443 83.1259 21.2443C85.8759 21.2443 87.9659 20.0068 89.1759 18.1368L87.1409 16.9818C86.4534 18.1093 85.0784 18.9893 83.1809 18.9893ZM78.2034 13.0218C78.5884 10.6293 80.3759 9.0343 82.9609 9.0343C85.0234 9.0343 86.9759 10.2993 87.3884 13.0218H78.2034Z" fill="#132030"/>
<path d="M63.5836 21.2443C59.4311 21.2443 56.3511 18.0818 56.3511 14.0118C56.3511 9.9418 59.4311 6.7793 63.5836 6.7793C66.3061 6.7793 68.6161 8.2093 69.6611 10.3818L67.6536 11.5368C66.9661 10.0793 65.4261 9.1168 63.5836 9.1168C60.8336 9.1168 58.7436 11.2343 58.7436 14.0118C58.7436 16.7618 60.8336 18.8793 63.5836 18.8793C65.4536 18.8793 66.9661 17.9168 67.7361 16.4868L69.7711 17.6693C68.6161 19.8143 66.2786 21.2443 63.5836 21.2443Z" fill="#132030"/>
<path d="M56.3568 6.88965C54.6243 6.88965 52.9468 7.52215 52.0668 9.44715V7.13715H49.6743V20.8871H52.0668V13.5996C52.0668 10.3546 54.2943 9.30965 56.3568 9.39215V6.88965Z" fill="#132030"/>
<path d="M45.6669 4.63449C44.7594 4.63449 44.0444 3.91949 44.0444 3.03949C44.0444 2.15949 44.7594 1.41699 45.6669 1.41699C46.5469 1.41699 47.2619 2.15949 47.2619 3.03949C47.2619 3.91949 46.5469 4.63449 45.6669 4.63449Z" fill="#132030"/>
<path d="M44.457 20.8867V7.13672H46.8495V20.8867H44.457Z" fill="#132030"/>
<path d="M29.5 14.0118C29.5 18.0818 32.58 21.2443 36.7325 21.2443C39.4275 21.2443 41.765 19.8143 42.92 17.6693L40.885 16.4868C40.115 17.9168 38.6025 18.8793 36.7325 18.8793C33.9825 18.8793 31.8925 16.7618 31.8925 14.0118C31.8925 11.2343 33.9825 9.1168 36.7325 9.1168C38.575 9.1168 40.115 10.0793 40.8025 11.5368L42.81 10.3818C41.765 8.2093 39.455 6.7793 36.7325 6.7793C32.58 6.7793 29.5 9.9418 29.5 14.0118Z" fill="#132030"/>
</g>
</g>
<defs>
<clipPath id="clip0_114_104">
<rect width="89.5" height="25" fill="white" transform="translate(0.5 0.0615234)"/>
</clipPath>
</defs>
</svg>
