<svg width="107" height="26" viewBox="0 0 107 26" fill="none" xmlns="http://www.w3.org/2000/svg">
<g clip-path="url(#clip0_114_90)">
<path d="M13.2217 12.2223C13.2217 12.2223 13.0506 10.0902 13.0506 7.24745C12.839 5.11784 12.4033 3.08967 11.2522 2.98806C10.8407 2.95175 10.4637 3.27705 10.1353 3.89824C10.7492 1.77459 13.2217 0.0615234 13.2217 0.0615234C13.2217 0.0615234 15.6944 1.77459 16.3082 3.89824C15.9799 3.27705 15.6029 2.95175 15.1914 2.98806C14.0402 3.08967 13.578 5.11784 13.3664 7.24745C13.3664 10.0902 13.2217 12.2223 13.2217 12.2223Z" fill="#132030"/>
<path d="M13.1954 12.9004C13.1954 12.9004 13.3666 15.0324 13.3666 17.8753C13.5782 20.0048 14.0138 22.033 15.1651 22.1346C15.5764 22.1709 15.9534 21.8456 16.2819 21.2244C15.6679 23.348 13.1954 25.0611 13.1954 25.0611C13.1954 25.0611 10.7229 23.348 10.1089 21.2244C10.4373 21.8456 10.8143 22.1709 11.2258 22.1346C12.377 22.033 12.8391 20.0048 13.0508 17.8753C13.0508 15.0324 13.1954 12.9004 13.1954 12.9004Z" fill="#132030"/>
<path d="M13.5479 12.5748C13.5479 12.5748 15.6799 12.4036 18.5227 12.4036C20.6522 12.192 22.6805 11.7564 22.7821 10.6052C22.8184 10.1937 22.4931 9.81671 21.8719 9.48828C23.9955 10.1023 25.7086 12.5748 25.7086 12.5748C25.7086 12.5748 23.9955 15.0474 21.8719 15.6613C22.4931 15.3329 22.8184 14.9559 22.7821 14.5444C22.6805 13.3933 20.6522 12.931 18.5227 12.7194C15.6799 12.7194 13.5479 12.5748 13.5479 12.5748Z" fill="#132030"/>
<path d="M12.8693 12.5484C12.8693 12.5484 10.7372 12.7196 7.89442 12.7196C5.76481 12.9312 3.73665 13.3668 3.63503 14.5181C3.59871 14.9295 3.92402 15.3065 4.54521 15.635C2.42156 15.021 0.708496 12.5484 0.708496 12.5484C0.708496 12.5484 2.42156 10.0759 4.54521 9.46191C3.92402 9.79035 3.59872 10.1674 3.63503 10.5788C3.73665 11.73 5.76481 12.1922 7.89442 12.4038C10.7372 12.4038 12.8693 12.5484 12.8693 12.5484Z" fill="#132030"/>
<path d="M13.4575 12.3307C13.4575 12.3307 14.844 10.7021 16.8541 8.69192C18.2104 7.03642 19.3365 5.29426 18.5944 4.40842C18.329 4.09177 17.8325 4.05522 17.161 4.26222C19.0968 3.19473 22.0564 3.73176 22.0564 3.73176C22.0564 3.73176 22.5935 6.69144 21.526 8.62722C21.733 7.95574 21.6964 7.45914 21.3798 7.19386C20.4939 6.45171 18.733 7.55904 17.0775 8.91527C15.0674 10.9254 13.4575 12.3307 13.4575 12.3307Z" fill="#132030"/>
<path d="M12.9592 12.792C12.9592 12.792 11.5726 14.4207 9.56245 16.4309C8.20623 18.0864 7.08013 19.8285 7.82228 20.7144C8.08755 21.031 8.58415 21.0676 9.25564 20.8606C7.31985 21.9281 4.36018 21.391 4.36018 21.391C4.36018 21.391 3.82315 18.4314 4.89064 16.4956C4.68363 17.1671 4.72019 17.6636 5.03683 17.929C5.92268 18.6711 7.68362 17.5637 9.3391 16.2075C11.3493 14.1974 12.9592 12.792 12.9592 12.792Z" fill="#132030"/>
<path d="M13.439 12.8105C13.439 12.8105 15.0677 14.197 17.0778 16.2072C18.7333 17.5634 20.4755 18.6895 21.3613 17.9474C21.678 17.6822 21.7146 17.1855 21.5076 16.514C22.575 18.4498 22.038 21.4095 22.038 21.4095C22.038 21.4095 19.0783 21.9465 17.1426 20.879C17.814 21.086 18.3106 21.0495 18.5758 20.7328C19.3181 19.847 18.2107 18.086 16.8545 16.4305C14.8443 14.4204 13.439 12.8105 13.439 12.8105Z" fill="#132030"/>
<path d="M12.9782 12.3122C12.9782 12.3122 11.3495 10.9256 9.33938 8.91548C7.68388 7.55926 5.94172 6.43316 5.05588 7.17531C4.73923 7.44058 4.70268 7.93718 4.90968 8.60867C3.8422 6.67288 4.37922 3.71321 4.37922 3.71321C4.37922 3.71321 7.3389 3.17618 9.27468 4.24367C8.6032 4.03666 8.10661 4.07322 7.84132 4.38986C7.09917 5.27571 8.2065 7.03664 9.56273 8.69213C11.5729 10.7023 12.9782 12.3122 12.9782 12.3122Z" fill="#132030"/>
<path d="M97.1758 16.6119V16.5181L97.982 15.6744H98.0758C98.9758 16.7806 100.082 17.5494 101.657 17.5494C103.363 17.5494 104.451 16.6494 104.451 15.4494C104.451 13.8931 102.632 13.4056 100.663 12.6181C99.407 12.1119 97.7008 11.3432 97.7008 9.41191C97.7008 7.51816 99.3133 6.14941 101.601 6.14941C103.345 6.14941 104.695 6.93691 105.52 8.02441V8.11816L104.676 8.90566H104.582C103.87 8.02441 102.895 7.38691 101.601 7.38691C100.176 7.38691 99.0883 8.15566 99.0883 9.28066C99.0883 10.4057 100.157 10.9119 101.451 11.4182C103.401 12.1869 105.838 12.9369 105.838 15.3931C105.838 17.4556 104.113 18.7869 101.732 18.7869C99.7258 18.7869 98.1133 17.8494 97.1758 16.6119Z" fill="#132030"/>
<path d="M93.5098 17.474L93.8285 18.4303L93.7723 18.524C93.491 18.7115 93.2285 18.7865 92.7785 18.7865C91.916 18.7865 91.016 18.1303 90.191 17.174L86.6285 13.049L85.4848 14.249V18.5615H84.1348V6.37402H85.4848V12.5053L91.3348 6.37402H92.966L93.0223 6.44902L87.566 12.149L91.2785 16.4615C92.0098 17.3053 92.4223 17.5678 92.8723 17.5678C93.0973 17.5678 93.266 17.5303 93.416 17.4365L93.5098 17.474Z" fill="#132030"/>
<path d="M72.297 18.7869C68.6595 18.7869 65.8657 16.0869 65.8657 12.4682C65.8657 8.84941 68.6595 6.14941 72.297 6.14941C75.9345 6.14941 78.7282 8.84941 78.7282 12.4682C78.7282 16.0869 75.9345 18.7869 72.297 18.7869ZM72.297 17.5494C75.1657 17.5494 77.3407 15.4306 77.3407 12.4682C77.3407 9.50566 75.1657 7.38691 72.297 7.38691C69.4282 7.38691 67.2532 9.50566 67.2532 12.4682C67.2532 15.4306 69.4282 17.5494 72.297 17.5494Z" fill="#132030"/>
<path d="M54.9273 18.7869C51.2898 18.7869 48.4961 16.0869 48.4961 12.4682C48.4961 8.84941 51.2898 6.14941 54.9273 6.14941C58.5648 6.14941 61.3586 8.84941 61.3586 12.4682C61.3586 16.0869 58.5648 18.7869 54.9273 18.7869ZM54.9273 17.5494C57.7961 17.5494 59.9711 15.4306 59.9711 12.4682C59.9711 9.50566 57.7961 7.38691 54.9273 7.38691C52.0586 7.38691 49.8836 9.50566 49.8836 12.4682C49.8836 15.4306 52.0586 17.5494 54.9273 17.5494Z" fill="#132030"/>
<path d="M41.7533 6.37402H43.1033V18.5615H41.7533V13.0115H34.3471V18.5615H32.9971V6.37402H34.3471V11.8115H41.7533V6.37402Z" fill="#132030"/>
</g>
<defs>
<clipPath id="clip0_114_90">
<rect width="105.375" height="25" fill="white" transform="translate(0.708496 0.0615234)"/>
</clipPath>
</defs>
</svg>
