<svg width="106" height="26" viewBox="0 0 106 26" fill="none" xmlns="http://www.w3.org/2000/svg">
<g clip-path="url(#clip0_114_47)">
<path d="M5.7077 22.0078V8.50777L6.9927 7.00777V21.4803C7.77431 21.0294 8.42337 20.3806 8.87453 19.5993C9.32571 18.8178 9.56306 17.9314 9.5627 17.029V0.0615234L3.1377 7.56152V22.174H4.4227C4.85633 22.1731 5.28812 22.1173 5.7077 22.0078Z" fill="#132030"/>
<path d="M17.2738 23.4554V12.3779L10.8475 4.87793V17.0267C10.8459 18.7303 10.1684 20.3637 8.96391 21.5684C7.75939 22.7732 6.12613 23.4509 4.4225 23.4529H0.25V25.0617H13.4188V11.8292L14.7038 13.3292V25.0617H20V23.4554H17.2738Z" fill="#132030"/>
<path d="M36.5825 8.40062V6.68652H38.1181V8.40062H36.5825Z" fill="#132030"/>
<path d="M36.5825 21.7499V10.5303H38.1181V21.7499H36.5825Z" fill="#132030"/>
<path d="M75.4302 21.7502C74.7963 21.8817 74.1696 21.9337 73.5497 21.906C72.9368 21.8784 72.3866 21.7467 71.8991 21.5112C71.4184 21.2757 71.0528 20.9087 70.8021 20.4101C70.6002 19.9945 70.4887 19.5755 70.4678 19.1531C70.4539 18.7237 70.4469 18.2354 70.4469 17.6882V11.8396H68.0337V10.5306H70.4469V7.41406H71.9722V10.5306H75.4302V11.8396H71.9722V17.626C71.9722 18.0969 71.9757 18.4916 71.9827 18.8102C71.9966 19.1219 72.0697 19.399 72.2021 19.6414C72.4527 20.1054 72.8497 20.3824 73.3929 20.4724C73.9432 20.5625 74.6222 20.5416 75.4302 20.4101V21.7502Z" fill="#132030"/>
<path d="M94.5703 21.7502C93.9366 21.8817 93.3097 21.9337 92.6898 21.906C92.077 21.8784 91.5268 21.7467 91.0392 21.5112C90.5587 21.2757 90.1931 20.9087 89.9423 20.4101C89.7403 19.9945 89.629 19.5755 89.608 19.1531C89.5941 18.7237 89.5871 18.2354 89.5871 17.6882V11.8396H87.1738V10.5306H89.5871V7.41406H91.1123V10.5306H94.5703V11.8396H91.1123V17.626C91.1123 18.0969 91.1158 18.4916 91.1228 18.8102C91.1367 19.1219 91.2098 19.399 91.3422 19.6414C91.593 20.1054 91.99 20.3824 92.5332 20.4724C93.0835 20.5625 93.7625 20.5416 94.5703 20.4101V21.7502Z" fill="#132030"/>
<path fill-rule="evenodd" clip-rule="evenodd" d="M100.741 22.0617C99.6411 22.0617 98.6868 21.8193 97.879 21.3344C97.0781 20.8497 96.4547 20.1675 96.009 19.2879C95.5632 18.4084 95.3403 17.3764 95.3403 16.1922C95.3403 14.9663 95.5597 13.9067 95.9985 13.0133C96.4373 12.1199 97.0537 11.4308 97.8476 10.946C98.6486 10.4612 99.5923 10.2188 100.679 10.2188C101.793 10.2188 102.744 10.475 103.531 10.9875C104.318 11.4931 104.913 12.2203 105.317 13.1692C105.721 14.1179 105.906 15.2503 105.871 16.5662H96.9802C97.0393 17.7755 97.3563 18.7313 97.9312 19.4334C98.579 20.209 99.4948 20.5969 100.679 20.5969C101.487 20.5969 102.19 20.4134 102.789 20.0463C103.395 19.6723 103.872 19.1355 104.22 18.436L105.652 18.9867C105.206 19.9632 104.548 20.7215 103.677 21.2618C102.813 21.795 101.835 22.0617 100.741 22.0617ZM103.353 12.7328C103.852 13.3429 104.155 14.1948 104.262 15.2884H97.0108C97.1156 14.2477 97.4223 13.4165 97.9312 12.7952C98.579 12.0125 99.5087 11.6212 100.721 11.6212C101.877 11.6212 102.754 11.9917 103.353 12.7328Z" fill="#132030"/>
<path fill-rule="evenodd" clip-rule="evenodd" d="M78.3218 21.6045C78.8998 21.9093 79.6136 22.0617 80.4634 22.0617C81.5916 22.0617 82.5598 21.8089 83.3676 21.3033C83.9359 20.9477 84.399 20.479 84.7572 19.8973V21.75H86.1257V14.7793C86.1257 14.3638 86.1048 13.9552 86.063 13.5535C86.0211 13.1518 85.9307 12.7882 85.7914 12.4627C85.4919 11.7355 84.98 11.1814 84.2556 10.8005C83.5383 10.4127 82.6643 10.2188 81.6334 10.2188C80.3868 10.2188 79.3734 10.4958 78.5934 11.0498C77.8133 11.6039 77.2944 12.383 77.0368 13.3873L78.5306 13.8235C78.7466 13.0757 79.1191 12.5285 79.6485 12.1822C80.1848 11.8359 80.8395 11.6628 81.6125 11.6628C82.7339 11.6628 83.5209 11.9294 83.9737 12.4627C84.3912 12.9545 84.6071 13.6908 84.6219 14.6715C84.254 14.7233 83.8499 14.7765 83.4094 14.8313C82.7478 14.9074 82.0688 15.0009 81.3723 15.1118C80.6828 15.2157 80.0525 15.3368 79.4814 15.4753C78.9173 15.6208 78.4193 15.832 77.9874 16.109C77.5626 16.386 77.2248 16.7428 76.974 17.179C76.7303 17.6084 76.6084 18.1279 76.6084 18.7373C76.6084 19.3329 76.7513 19.8835 77.0368 20.3892C77.3223 20.8947 77.7506 21.2998 78.3218 21.6045ZM82.5214 20.3579C81.9851 20.6142 81.3584 20.7423 80.641 20.7423C80.035 20.7423 79.5475 20.6419 79.1784 20.441C78.8163 20.2402 78.5515 19.9874 78.3844 19.6827C78.2243 19.3779 78.1441 19.0628 78.1441 18.7373C78.1441 18.3357 78.2381 17.9998 78.4263 17.7297C78.6213 17.4595 78.8685 17.2449 79.1679 17.0855C79.4674 16.9194 79.7774 16.7913 80.0978 16.7012C80.5714 16.5765 81.1006 16.4692 81.6856 16.3792C82.2776 16.2892 82.8766 16.2094 83.4825 16.1402C83.8728 16.0962 84.2446 16.052 84.5981 16.0079C84.5964 16.1768 84.5936 16.3768 84.59 16.6077C84.583 17.037 84.5378 17.4319 84.4542 17.792C84.3566 18.3529 84.1443 18.8585 83.8169 19.3087C83.4895 19.7519 83.0578 20.1017 82.5214 20.3579Z" fill="#132030"/>
<path d="M59.6677 21.1994C60.5243 21.7673 61.6143 22.0513 62.9376 22.0513C64.3236 22.0513 65.4101 21.75 66.1971 21.1474C66.991 20.538 67.388 19.7034 67.388 18.6438C67.388 18.062 67.2626 17.5738 67.012 17.179C66.7612 16.7843 66.3398 16.4415 65.7478 16.1507C65.1558 15.8597 64.341 15.5827 63.3032 15.3195C62.4187 15.0979 61.7362 14.8935 61.2556 14.7067C60.782 14.5197 60.4547 14.3221 60.2736 14.1144C60.0925 13.8998 60.002 13.6435 60.002 13.3457C60.002 12.8124 60.2527 12.3865 60.7541 12.0679C61.2556 11.7424 61.9068 11.59 62.7077 11.6108C63.5575 11.6247 64.2573 11.8255 64.8076 12.2134C65.3647 12.5943 65.6956 13.1137 65.8001 13.7717L67.3671 13.4911C67.2905 12.8401 67.0467 12.2688 66.6358 11.777C66.2248 11.2853 65.6817 10.9044 65.0061 10.6343C64.3375 10.3573 63.5783 10.2188 62.7286 10.2188C61.879 10.2188 61.1337 10.3538 60.493 10.6239C59.8522 10.8871 59.3507 11.2611 58.9886 11.7459C58.6265 12.2237 58.4453 12.7813 58.4453 13.4184C58.4453 13.9448 58.5672 14.3915 58.811 14.7585C59.0547 15.1186 59.4657 15.4373 60.0437 15.7143C60.6218 15.9913 61.4227 16.2683 62.4466 16.5454C63.4007 16.8016 64.1181 17.0233 64.5986 17.2103C65.0792 17.3971 65.3961 17.6015 65.5493 17.8231C65.7095 18.0378 65.7896 18.3183 65.7896 18.6647C65.7896 19.281 65.5423 19.7693 65.0478 20.1294C64.5533 20.4827 63.8778 20.6592 63.0211 20.6592C62.1436 20.6592 61.4053 20.4721 60.8063 20.0983C60.2143 19.7173 59.8348 19.2083 59.6677 18.5712L58.1006 18.8308C58.2956 19.842 58.818 20.6315 59.6677 21.1994Z" fill="#132030"/>
<path fill-rule="evenodd" clip-rule="evenodd" d="M50.7637 22.0617C49.9139 22.0617 49.2001 21.9093 48.6221 21.6045C48.0509 21.2998 47.6226 20.8947 47.3371 20.3892C47.0514 19.8835 46.9087 19.3329 46.9087 18.7373C46.9087 18.1279 47.0306 17.6084 47.2743 17.179C47.5251 16.7428 47.8629 16.386 48.2877 16.109C48.7196 15.832 49.2176 15.6208 49.7817 15.4753C50.3528 15.3368 50.9831 15.2157 51.6726 15.1118C52.3691 15.0009 53.0481 14.9074 53.7097 14.8313C54.1502 14.7765 54.5543 14.7233 54.9222 14.6715C54.9074 13.6908 54.6914 12.9545 54.2738 12.4627C53.8212 11.9294 53.0342 11.6628 51.9128 11.6628C51.1398 11.6628 50.4851 11.8359 49.9488 12.1822C49.4194 12.5285 49.0468 13.0757 48.8309 13.8235L47.3371 13.3873C47.5947 12.383 48.1136 11.6039 48.8937 11.0498C49.6737 10.4958 50.6871 10.2188 51.9337 10.2188C52.9646 10.2188 53.8386 10.4127 54.5559 10.8005C55.2803 11.1814 55.7922 11.7355 56.0917 12.4627C56.2309 12.7882 56.3214 13.1518 56.3633 13.5535C56.4051 13.9552 56.4259 14.3638 56.4259 14.7793V21.75H55.0574V19.8973C54.6993 20.479 54.2362 20.9477 53.6679 21.3033C52.8601 21.8089 51.8919 22.0617 50.7637 22.0617ZM50.9413 20.7423C51.6587 20.7423 52.2854 20.6142 52.8217 20.3579C53.3581 20.1017 53.7898 19.7519 54.1172 19.3087C54.4446 18.8585 54.6569 18.3529 54.7544 17.792C54.8381 17.4319 54.8833 17.037 54.8902 16.6077C54.8939 16.3768 54.8967 16.1768 54.8984 16.0079C54.5449 16.052 54.1731 16.0962 53.7828 16.1402C53.1769 16.2094 52.5779 16.2892 51.9859 16.3792C51.4009 16.4692 50.8716 16.5765 50.3981 16.7012C50.0777 16.7913 49.7677 16.9194 49.4682 17.0855C49.1688 17.2449 48.9216 17.4595 48.7264 17.7297C48.5384 17.9998 48.4444 18.3357 48.4444 18.7373C48.4444 19.0628 48.5246 19.3779 48.6847 19.6827C48.8518 19.9874 49.1166 20.2402 49.4787 20.441C49.8478 20.6419 50.3353 20.7423 50.9413 20.7423Z" fill="#132030"/>
<path d="M40.832 10.53V21.7496H42.3678V16.1501C42.3678 15.7069 42.399 15.2603 42.4618 14.81C42.5244 14.353 42.6498 13.9236 42.8379 13.5219C43.0259 13.1133 43.3079 12.7635 43.684 12.4727C44.095 12.1402 44.5442 11.9463 45.0318 11.8909C45.5193 11.8355 45.9685 11.8597 46.3794 11.9636V10.53C46.052 10.4469 45.6899 10.4192 45.2929 10.4469C44.8959 10.4677 44.5024 10.5473 44.1124 10.6858C43.7224 10.8174 43.3812 11.0113 43.0885 11.2676C42.8518 11.4477 42.6324 11.6797 42.4304 11.9636C42.3514 12.072 42.2783 12.1845 42.211 12.3014V10.53H40.832Z" fill="#132030"/>
<path d="M32.5341 16.026V21.7501H34.0803V15.5793C34.0803 15.0737 34.0315 14.5681 33.934 14.0626C33.8365 13.5501 33.6799 13.0687 33.4639 12.6186C33.248 12.1615 32.9625 11.7563 32.6073 11.4031C32.259 11.0499 31.8308 10.7694 31.3223 10.5616C30.8208 10.3539 30.2323 10.25 29.5568 10.25C28.6374 10.25 27.8225 10.4508 27.1121 10.8525C26.5755 11.156 26.1263 11.5681 25.7645 12.089V10.5305H24.375V21.7501H25.9211V15.7663C25.9211 15.1291 25.9942 14.5612 26.1405 14.0626C26.2867 13.564 26.4993 13.1415 26.7779 12.7952C27.0634 12.442 27.4116 12.1719 27.8225 11.9849C28.2404 11.7979 28.721 11.7044 29.2643 11.7044C29.8563 11.7044 30.3576 11.8117 30.7686 12.0264C31.1865 12.2411 31.5243 12.5458 31.782 12.9406C32.0466 13.3285 32.2381 13.7856 32.3565 14.3118C32.4749 14.8313 32.5341 15.4027 32.5341 16.026Z" fill="#132030"/>
</g>
<defs>
<clipPath id="clip0_114_47">
<rect width="106" height="25" fill="white" transform="translate(0 0.0615234)"/>
</clipPath>
</defs>
</svg>
